<svg width="178" height="178" viewBox="0 0 178 178" fill="none" xmlns="http://www.w3.org/2000/svg">
<rect width="178" height="178" fill="#00AB37"/>
<path d="M49.9205 152.682V161.409H48.8977L44.1421 154.557H44.0568V161.409H43V152.682H44.0227L48.7955 159.551H48.8807V152.682H49.9205ZM56.0238 158.733V154.864H57.0295V161.409H56.0238V160.301H55.9556C55.8022 160.633 55.5636 160.916 55.2397 161.149C54.9159 161.379 54.5068 161.494 54.0124 161.494C53.6034 161.494 53.2397 161.405 52.9215 161.226C52.6034 161.044 52.3534 160.771 52.1715 160.408C51.9897 160.041 51.8988 159.579 51.8988 159.023V154.864H52.9045V158.954C52.9045 159.432 53.038 159.812 53.3051 160.097C53.5749 160.381 53.9187 160.523 54.3363 160.523C54.5863 160.523 54.8406 160.459 55.0991 160.331C55.3605 160.203 55.5792 160.007 55.7553 159.743C55.9343 159.479 56.0238 159.142 56.0238 158.733ZM54.0124 153.977L55.0522 152H56.2284L54.8988 153.977H54.0124ZM58.8715 161.409V154.864H59.8431V155.886H59.9283C60.0646 155.537 60.2848 155.266 60.5888 155.072C60.8928 154.876 61.2578 154.778 61.684 154.778C62.1158 154.778 62.4752 154.876 62.7621 155.072C63.0519 155.266 63.2777 155.537 63.4396 155.886H63.5078C63.6754 155.548 63.9269 155.28 64.2621 155.081C64.5973 154.879 64.9993 154.778 65.4681 154.778C66.0533 154.778 66.532 154.962 66.9041 155.328C67.2763 155.692 67.4624 156.258 67.4624 157.028V161.409H66.4567V157.028C66.4567 156.545 66.3246 156.2 66.0604 155.993C65.7962 155.785 65.4851 155.682 65.1271 155.682C64.6669 155.682 64.3104 155.821 64.0575 156.099C63.8047 156.375 63.6783 156.724 63.6783 157.148V161.409H62.6556V156.926C62.6556 156.554 62.5348 156.254 62.2933 156.027C62.0519 155.797 61.7408 155.682 61.3601 155.682C61.0987 155.682 60.8544 155.751 60.6271 155.891C60.4027 156.03 60.2209 156.223 60.0817 156.47C59.9453 156.714 59.8771 156.997 59.8771 157.318V161.409H58.8715ZM72.0455 161.545C71.4148 161.545 70.8708 161.406 70.4134 161.128C69.9588 160.847 69.608 160.454 69.3608 159.952C69.1165 159.446 68.9943 158.858 68.9943 158.187C68.9943 157.517 69.1165 156.926 69.3608 156.415C69.608 155.9 69.9517 155.5 70.3921 155.213C70.8352 154.923 71.3523 154.778 71.9432 154.778C72.2841 154.778 72.6208 154.835 72.9531 154.949C73.2855 155.062 73.5881 155.247 73.8608 155.503C74.1335 155.756 74.3509 156.091 74.5128 156.508C74.6747 156.926 74.7557 157.44 74.7557 158.051V158.477H69.7102V157.608H73.733C73.733 157.239 73.6591 156.909 73.5114 156.619C73.3665 156.329 73.1591 156.101 72.8892 155.933C72.6222 155.766 72.3068 155.682 71.9432 155.682C71.5426 155.682 71.196 155.781 70.9034 155.98C70.6137 156.176 70.3906 156.432 70.2344 156.747C70.0781 157.062 70 157.4 70 157.761V158.341C70 158.835 70.0852 159.254 70.2557 159.598C70.429 159.939 70.6691 160.199 70.9759 160.378C71.2827 160.554 71.6392 160.642 72.0455 160.642C72.3097 160.642 72.5483 160.605 72.7614 160.531C72.9773 160.454 73.1634 160.341 73.3196 160.19C73.4759 160.037 73.5966 159.846 73.6818 159.619L74.6534 159.892C74.5512 160.221 74.3793 160.511 74.1378 160.761C73.8963 161.008 73.598 161.202 73.2429 161.341C72.8878 161.477 72.4887 161.545 72.0455 161.545ZM76.2855 161.409V154.864H77.2571V155.852H77.3253C77.4446 155.528 77.6605 155.266 77.973 155.064C78.2855 154.862 78.6378 154.761 79.0298 154.761C79.1037 154.761 79.196 154.763 79.3068 154.766C79.4176 154.768 79.5014 154.773 79.5583 154.778V155.801C79.5242 155.793 79.446 155.78 79.3239 155.763C79.2046 155.743 79.0781 155.733 78.9446 155.733C78.6264 155.733 78.3423 155.8 78.0923 155.933C77.8452 156.064 77.6492 156.246 77.5043 156.479C77.3622 156.709 77.2912 156.971 77.2912 157.267V161.409H76.2855ZM83.2102 161.545C82.6193 161.545 82.1009 161.405 81.6548 161.123C81.2117 160.842 80.8651 160.449 80.6151 159.943C80.3679 159.437 80.2443 158.846 80.2443 158.17C80.2443 157.489 80.3679 156.893 80.6151 156.385C80.8651 155.876 81.2117 155.481 81.6548 155.2C82.1009 154.919 82.6193 154.778 83.2102 154.778C83.8012 154.778 84.3182 154.919 84.7614 155.2C85.2074 155.481 85.554 155.876 85.8012 156.385C86.0512 156.893 86.1762 157.489 86.1762 158.17C86.1762 158.846 86.0512 159.437 85.8012 159.943C85.554 160.449 85.2074 160.842 84.7614 161.123C84.3182 161.405 83.8012 161.545 83.2102 161.545ZM83.2102 160.642C83.6591 160.642 84.0284 160.527 84.3182 160.297C84.608 160.067 84.8225 159.764 84.9617 159.389C85.1009 159.014 85.1705 158.608 85.1705 158.17C85.1705 157.733 85.1009 157.325 84.9617 156.947C84.8225 156.57 84.608 156.264 84.3182 156.031C84.0284 155.798 83.6591 155.682 83.2102 155.682C82.7614 155.682 82.3921 155.798 82.1023 156.031C81.8125 156.264 81.598 156.57 81.4588 156.947C81.3196 157.325 81.25 157.733 81.25 158.17C81.25 158.608 81.3196 159.014 81.4588 159.389C81.598 159.764 81.8125 160.067 82.1023 160.297C82.3921 160.527 82.7614 160.642 83.2102 160.642ZM93.5579 161.545C93.0124 161.545 92.5309 161.408 92.1133 161.132C91.6957 160.854 91.369 160.462 91.1332 159.956C90.8974 159.447 90.7795 158.847 90.7795 158.153C90.7795 157.466 90.8974 156.869 91.1332 156.364C91.369 155.858 91.6971 155.467 92.1176 155.192C92.538 154.916 93.0238 154.778 93.5749 154.778C94.0011 154.778 94.3377 154.849 94.5849 154.991C94.8349 155.131 95.0252 155.29 95.1559 155.469C95.2894 155.645 95.3931 155.79 95.467 155.903H95.5522V152.682H96.5579V161.409H95.5863V160.403H95.467C95.3931 160.523 95.288 160.673 95.1517 160.855C95.0153 161.034 94.8207 161.195 94.5678 161.337C94.315 161.476 93.9784 161.545 93.5579 161.545ZM93.6943 160.642C94.0977 160.642 94.4386 160.537 94.717 160.327C94.9954 160.114 95.207 159.82 95.3519 159.445C95.4968 159.067 95.5693 158.631 95.5693 158.136C95.5693 157.648 95.4982 157.22 95.3562 156.854C95.2142 156.484 95.0039 156.197 94.7255 155.993C94.4471 155.785 94.1034 155.682 93.6943 155.682C93.2681 155.682 92.913 155.791 92.6289 156.01C92.3477 156.226 92.136 156.52 91.994 156.892C91.8548 157.261 91.7852 157.676 91.7852 158.136C91.7852 158.602 91.8562 159.025 91.9982 159.406C92.1431 159.784 92.3562 160.085 92.6374 160.31C92.9215 160.531 93.2738 160.642 93.6943 160.642ZM100.466 161.562C100.051 161.562 99.6744 161.484 99.3363 161.328C98.9982 161.169 98.7298 160.94 98.5309 160.642C98.332 160.341 98.2326 159.977 98.2326 159.551C98.2326 159.176 98.3065 158.872 98.4542 158.639C98.6019 158.403 98.7994 158.219 99.0465 158.085C99.2937 157.952 99.5664 157.852 99.8647 157.787C100.166 157.719 100.468 157.665 100.772 157.625C101.17 157.574 101.492 157.535 101.74 157.51C101.99 157.481 102.171 157.435 102.285 157.369C102.401 157.304 102.46 157.19 102.46 157.028V156.994C102.46 156.574 102.345 156.247 102.115 156.014C101.887 155.781 101.542 155.665 101.079 155.665C100.599 155.665 100.223 155.77 99.9499 155.98C99.6772 156.19 99.4855 156.415 99.3747 156.653L98.4201 156.312C98.5906 155.915 98.8178 155.605 99.1019 155.383C99.3889 155.159 99.7014 155.003 100.039 154.915C100.38 154.824 100.716 154.778 101.045 154.778C101.255 154.778 101.497 154.804 101.769 154.855C102.045 154.903 102.311 155.004 102.566 155.158C102.825 155.311 103.039 155.543 103.21 155.852C103.38 156.162 103.465 156.577 103.465 157.097V161.409H102.46V160.523H102.409C102.34 160.665 102.227 160.817 102.068 160.979C101.909 161.141 101.697 161.278 101.433 161.392C101.168 161.506 100.846 161.562 100.466 161.562ZM100.619 160.659C101.017 160.659 101.352 160.581 101.624 160.425C101.9 160.268 102.107 160.067 102.247 159.82C102.389 159.572 102.46 159.312 102.46 159.04V158.119C102.417 158.17 102.323 158.217 102.178 158.26C102.036 158.3 101.872 158.335 101.684 158.366C101.499 158.395 101.319 158.42 101.143 158.443C100.97 158.463 100.829 158.48 100.721 158.494C100.46 158.528 100.216 158.584 99.9883 158.66C99.7639 158.734 99.582 158.846 99.4428 158.997C99.3065 159.145 99.2383 159.346 99.2383 159.602C99.2383 159.952 99.3676 160.216 99.6261 160.395C99.8874 160.571 100.218 160.659 100.619 160.659ZM113.312 156.329L112.409 156.585C112.352 156.435 112.268 156.288 112.157 156.146C112.05 156.001 111.902 155.882 111.714 155.788C111.527 155.695 111.287 155.648 110.994 155.648C110.594 155.648 110.26 155.74 109.993 155.925C109.729 156.106 109.596 156.338 109.596 156.619C109.596 156.869 109.687 157.067 109.869 157.212C110.051 157.356 110.335 157.477 110.721 157.574L111.693 157.812C112.278 157.954 112.714 158.172 113.001 158.464C113.288 158.754 113.432 159.128 113.432 159.585C113.432 159.96 113.324 160.295 113.108 160.591C112.895 160.886 112.596 161.119 112.213 161.29C111.829 161.46 111.383 161.545 110.875 161.545C110.207 161.545 109.655 161.4 109.217 161.111C108.78 160.821 108.503 160.398 108.386 159.841L109.341 159.602C109.432 159.954 109.604 160.219 109.856 160.395C110.112 160.571 110.446 160.659 110.858 160.659C111.327 160.659 111.699 160.56 111.974 160.361C112.253 160.159 112.392 159.918 112.392 159.636C112.392 159.409 112.312 159.219 112.153 159.065C111.994 158.909 111.75 158.793 111.42 158.716L110.329 158.46C109.73 158.318 109.29 158.098 109.008 157.8C108.73 157.498 108.591 157.122 108.591 156.67C108.591 156.301 108.694 155.974 108.902 155.69C109.112 155.406 109.398 155.183 109.758 155.021C110.122 154.859 110.534 154.778 110.994 154.778C111.642 154.778 112.15 154.92 112.52 155.204C112.892 155.489 113.156 155.864 113.312 156.329ZM117.605 161.545C117.014 161.545 116.495 161.405 116.049 161.123C115.606 160.842 115.259 160.449 115.009 159.943C114.762 159.437 114.639 158.846 114.639 158.17C114.639 157.489 114.762 156.893 115.009 156.385C115.259 155.876 115.606 155.481 116.049 155.2C116.495 154.919 117.014 154.778 117.605 154.778C118.195 154.778 118.713 154.919 119.156 155.2C119.602 155.481 119.948 155.876 120.195 156.385C120.445 156.893 120.57 157.489 120.57 158.17C120.57 158.846 120.445 159.437 120.195 159.943C119.948 160.449 119.602 160.842 119.156 161.123C118.713 161.405 118.195 161.545 117.605 161.545ZM117.605 160.642C118.053 160.642 118.423 160.527 118.713 160.297C119.002 160.067 119.217 159.764 119.356 159.389C119.495 159.014 119.565 158.608 119.565 158.17C119.565 157.733 119.495 157.325 119.356 156.947C119.217 156.57 119.002 156.264 118.713 156.031C118.423 155.798 118.053 155.682 117.605 155.682C117.156 155.682 116.786 155.798 116.497 156.031C116.207 156.264 115.992 156.57 115.853 156.947C115.714 157.325 115.644 157.733 115.644 158.17C115.644 158.608 115.714 159.014 115.853 159.389C115.992 159.764 116.207 160.067 116.497 160.297C116.786 160.527 117.156 160.642 117.605 160.642ZM122.106 161.409V154.864H123.077V155.852H123.145C123.265 155.528 123.481 155.266 123.793 155.064C124.106 154.862 124.458 154.761 124.85 154.761C124.924 154.761 125.016 154.763 125.127 154.766C125.238 154.768 125.322 154.773 125.378 154.778V155.801C125.344 155.793 125.266 155.78 125.144 155.763C125.025 155.743 124.898 155.733 124.765 155.733C124.447 155.733 124.162 155.8 123.912 155.933C123.665 156.064 123.469 156.246 123.324 156.479C123.182 156.709 123.111 156.971 123.111 157.267V161.409H122.106ZM129.827 154.864V155.716H126.435V154.864H129.827ZM127.424 153.295H128.43V159.534C128.43 159.818 128.471 160.031 128.553 160.173C128.638 160.312 128.746 160.406 128.877 160.454C129.01 160.5 129.151 160.523 129.299 160.523C129.41 160.523 129.501 160.517 129.572 160.506C129.643 160.491 129.699 160.48 129.742 160.471L129.947 161.375C129.878 161.4 129.783 161.426 129.661 161.452C129.539 161.48 129.384 161.494 129.197 161.494C128.912 161.494 128.634 161.433 128.361 161.311C128.091 161.189 127.867 161.003 127.688 160.753C127.512 160.503 127.424 160.187 127.424 159.807V153.295ZM134.014 161.545C133.383 161.545 132.839 161.406 132.382 161.128C131.927 160.847 131.577 160.454 131.329 159.952C131.085 159.446 130.963 158.858 130.963 158.187C130.963 157.517 131.085 156.926 131.329 156.415C131.577 155.9 131.92 155.5 132.361 155.213C132.804 154.923 133.321 154.778 133.912 154.778C134.253 154.778 134.589 154.835 134.922 154.949C135.254 155.062 135.557 155.247 135.829 155.503C136.102 155.756 136.319 156.091 136.481 156.508C136.643 156.926 136.724 157.44 136.724 158.051V158.477H131.679V157.608H135.702C135.702 157.239 135.628 156.909 135.48 156.619C135.335 156.329 135.128 156.101 134.858 155.933C134.591 155.766 134.275 155.682 133.912 155.682C133.511 155.682 133.165 155.781 132.872 155.98C132.582 156.176 132.359 156.432 132.203 156.747C132.047 157.062 131.969 157.4 131.969 157.761V158.341C131.969 158.835 132.054 159.254 132.224 159.598C132.398 159.939 132.638 160.199 132.944 160.378C133.251 160.554 133.608 160.642 134.014 160.642C134.278 160.642 134.517 160.605 134.73 160.531C134.946 160.454 135.132 160.341 135.288 160.19C135.444 160.037 135.565 159.846 135.65 159.619L136.622 159.892C136.52 160.221 136.348 160.511 136.106 160.761C135.865 161.008 135.567 161.202 135.211 161.341C134.856 161.477 134.457 161.545 134.014 161.545Z" fill="white"/>
<path fill-rule="evenodd" clip-rule="evenodd" d="M112.777 59.0358C101.257 56.8091 92.4574 54.6891 90.5241 54.2091L90.5108 54.0625L90.4974 54.0225C92.5241 53.5958 102.471 51.7025 113.257 52.6891C132.724 54.4758 130.471 28.2358 114.964 32.7958C120.604 18.0091 98.7908 12.0758 95.0441 31.4491C92.8041 43.0491 90.6574 51.8758 90.2041 53.7292C90.1641 53.7158 90.1241 53.7158 90.0841 53.7158L90.0308 53.7292C89.6174 51.7158 87.7108 41.7692 88.6974 30.9692C90.4841 11.5025 64.2441 13.7558 68.8041 29.2624C54.0041 23.6224 48.0841 45.4224 67.4574 49.1691C79.0441 51.4224 87.8708 53.5558 89.7374 54.0091C89.7241 54.0491 89.7108 54.1025 89.7241 54.1425V54.1958C87.6708 54.6225 77.7374 56.5158 66.9641 55.5291C47.5108 53.7425 49.7508 79.9824 65.2574 75.4224C59.6174 90.2091 81.4308 96.1291 85.1774 76.7558C87.1641 66.5558 89.0574 58.4891 89.7908 55.4358C90.0974 61.4491 89.4841 67.4758 88.2441 73.3424C86.9241 79.6491 84.9374 85.8091 82.8574 91.9425C80.6841 98.0358 78.6841 104.423 77.8574 111.009C76.9641 117.596 77.1108 124.382 78.4041 130.969V130.982L78.4174 131.049C78.6574 132.076 79.6841 132.716 80.7108 132.476C81.7508 132.223 82.3908 131.196 82.1508 130.169C80.7108 124.036 80.3108 117.676 80.9241 111.369C81.2174 108.209 81.7508 105.062 82.4841 101.956C83.2041 98.8358 84.1508 95.7824 85.0841 92.6491C86.9374 86.4091 88.6974 80.1025 89.7774 73.6358C90.6574 68.4625 91.0574 63.1958 90.8174 57.9558C91.4574 62.2225 92.2308 69.5158 91.5241 77.2491C89.7374 96.7024 115.991 94.4625 111.431 78.9558C126.217 84.5958 132.151 62.7825 112.777 59.0358Z" fill="white"/>
</svg>
