<svg width="430" height="932" viewBox="0 0 430 932" fill="none" xmlns="http://www.w3.org/2000/svg">
<rect width="430" height="932" fill="#00AB37"/>
<rect x="126" y="377" width="178" height="178" fill="#00AB37"/>
<path d="M175.92 529.682V538.409H174.898L170.142 531.557H170.057V538.409H169V529.682H170.023L174.795 536.551H174.881V529.682H175.92ZM182.024 535.733V531.864H183.029V538.409H182.024V537.301H181.956C181.802 537.633 181.564 537.916 181.24 538.149C180.916 538.379 180.507 538.494 180.012 538.494C179.603 538.494 179.24 538.405 178.921 538.226C178.603 538.044 178.353 537.771 178.171 537.408C177.99 537.041 177.899 536.579 177.899 536.023V531.864H178.904V535.954C178.904 536.432 179.038 536.812 179.305 537.097C179.575 537.381 179.919 537.523 180.336 537.523C180.586 537.523 180.841 537.459 181.099 537.331C181.36 537.203 181.579 537.007 181.755 536.743C181.934 536.479 182.024 536.142 182.024 535.733ZM180.012 530.977L181.052 529H182.228L180.899 530.977H180.012ZM184.871 538.409V531.864H185.843V532.886H185.928C186.065 532.537 186.285 532.266 186.589 532.072C186.893 531.876 187.258 531.778 187.684 531.778C188.116 531.778 188.475 531.876 188.762 532.072C189.052 532.266 189.278 532.537 189.44 532.886H189.508C189.675 532.548 189.927 532.28 190.262 532.081C190.597 531.879 190.999 531.778 191.468 531.778C192.053 531.778 192.532 531.962 192.904 532.328C193.276 532.692 193.462 533.258 193.462 534.028V538.409H192.457V534.028C192.457 533.545 192.325 533.2 192.06 532.993C191.796 532.785 191.485 532.682 191.127 532.682C190.667 532.682 190.31 532.821 190.057 533.099C189.805 533.375 189.678 533.724 189.678 534.148V538.409H188.656V533.926C188.656 533.554 188.535 533.254 188.293 533.027C188.052 532.797 187.741 532.682 187.36 532.682C187.099 532.682 186.854 532.751 186.627 532.891C186.403 533.03 186.221 533.223 186.082 533.47C185.945 533.714 185.877 533.997 185.877 534.318V538.409H184.871ZM198.046 538.545C197.415 538.545 196.871 538.406 196.413 538.128C195.959 537.847 195.608 537.454 195.361 536.952C195.117 536.446 194.994 535.858 194.994 535.187C194.994 534.517 195.117 533.926 195.361 533.415C195.608 532.9 195.952 532.5 196.392 532.213C196.835 531.923 197.352 531.778 197.943 531.778C198.284 531.778 198.621 531.835 198.953 531.949C199.286 532.062 199.588 532.247 199.861 532.503C200.134 532.756 200.351 533.091 200.513 533.508C200.675 533.926 200.756 534.44 200.756 535.051V535.477H195.71V534.608H199.733C199.733 534.239 199.659 533.909 199.511 533.619C199.366 533.329 199.159 533.101 198.889 532.933C198.622 532.766 198.307 532.682 197.943 532.682C197.543 532.682 197.196 532.781 196.903 532.98C196.614 533.176 196.391 533.432 196.234 533.747C196.078 534.062 196 534.4 196 534.761V535.341C196 535.835 196.085 536.254 196.256 536.598C196.429 536.939 196.669 537.199 196.976 537.378C197.283 537.554 197.639 537.642 198.046 537.642C198.31 537.642 198.548 537.605 198.761 537.531C198.977 537.454 199.163 537.341 199.32 537.19C199.476 537.037 199.597 536.846 199.682 536.619L200.653 536.892C200.551 537.221 200.379 537.511 200.138 537.761C199.896 538.008 199.598 538.202 199.243 538.341C198.888 538.477 198.489 538.545 198.046 538.545ZM202.285 538.409V531.864H203.257V532.852H203.325C203.445 532.528 203.66 532.266 203.973 532.064C204.285 531.862 204.638 531.761 205.03 531.761C205.104 531.761 205.196 531.763 205.307 531.766C205.418 531.768 205.501 531.773 205.558 531.778V532.801C205.524 532.793 205.446 532.78 205.324 532.763C205.205 532.743 205.078 532.733 204.945 532.733C204.626 532.733 204.342 532.8 204.092 532.933C203.845 533.064 203.649 533.246 203.504 533.479C203.362 533.709 203.291 533.971 203.291 534.267V538.409H202.285ZM209.21 538.545C208.619 538.545 208.101 538.405 207.655 538.123C207.212 537.842 206.865 537.449 206.615 536.943C206.368 536.437 206.244 535.846 206.244 535.17C206.244 534.489 206.368 533.893 206.615 533.385C206.865 532.876 207.212 532.481 207.655 532.2C208.101 531.919 208.619 531.778 209.21 531.778C209.801 531.778 210.318 531.919 210.761 532.2C211.207 532.481 211.554 532.876 211.801 533.385C212.051 533.893 212.176 534.489 212.176 535.17C212.176 535.846 212.051 536.437 211.801 536.943C211.554 537.449 211.207 537.842 210.761 538.123C210.318 538.405 209.801 538.545 209.21 538.545ZM209.21 537.642C209.659 537.642 210.028 537.527 210.318 537.297C210.608 537.067 210.823 536.764 210.962 536.389C211.101 536.014 211.171 535.608 211.171 535.17C211.171 534.733 211.101 534.325 210.962 533.947C210.823 533.57 210.608 533.264 210.318 533.031C210.028 532.798 209.659 532.682 209.21 532.682C208.761 532.682 208.392 532.798 208.102 533.031C207.813 533.264 207.598 533.57 207.459 533.947C207.32 534.325 207.25 534.733 207.25 535.17C207.25 535.608 207.32 536.014 207.459 536.389C207.598 536.764 207.813 537.067 208.102 537.297C208.392 537.527 208.761 537.642 209.21 537.642ZM219.558 538.545C219.012 538.545 218.531 538.408 218.113 538.132C217.696 537.854 217.369 537.462 217.133 536.956C216.897 536.447 216.78 535.847 216.78 535.153C216.78 534.466 216.897 533.869 217.133 533.364C217.369 532.858 217.697 532.467 218.118 532.192C218.538 531.916 219.024 531.778 219.575 531.778C220.001 531.778 220.338 531.849 220.585 531.991C220.835 532.131 221.025 532.29 221.156 532.469C221.289 532.645 221.393 532.79 221.467 532.903H221.552V529.682H222.558V538.409H221.586V537.403H221.467C221.393 537.523 221.288 537.673 221.152 537.855C221.015 538.034 220.821 538.195 220.568 538.337C220.315 538.476 219.978 538.545 219.558 538.545ZM219.694 537.642C220.098 537.642 220.439 537.537 220.717 537.327C220.995 537.114 221.207 536.82 221.352 536.445C221.497 536.067 221.569 535.631 221.569 535.136C221.569 534.648 221.498 534.22 221.356 533.854C221.214 533.484 221.004 533.197 220.726 532.993C220.447 532.785 220.103 532.682 219.694 532.682C219.268 532.682 218.913 532.791 218.629 533.01C218.348 533.226 218.136 533.52 217.994 533.892C217.855 534.261 217.785 534.676 217.785 535.136C217.785 535.602 217.856 536.025 217.998 536.406C218.143 536.784 218.356 537.085 218.637 537.31C218.921 537.531 219.274 537.642 219.694 537.642ZM226.466 538.562C226.051 538.562 225.674 538.484 225.336 538.328C224.998 538.169 224.73 537.94 224.531 537.642C224.332 537.341 224.233 536.977 224.233 536.551C224.233 536.176 224.306 535.872 224.454 535.639C224.602 535.403 224.799 535.219 225.047 535.085C225.294 534.952 225.566 534.852 225.865 534.787C226.166 534.719 226.468 534.665 226.772 534.625C227.17 534.574 227.492 534.535 227.74 534.51C227.99 534.481 228.171 534.435 228.285 534.369C228.401 534.304 228.46 534.19 228.46 534.028V533.994C228.46 533.574 228.345 533.247 228.115 533.014C227.887 532.781 227.542 532.665 227.079 532.665C226.599 532.665 226.223 532.77 225.95 532.98C225.677 533.19 225.486 533.415 225.375 533.653L224.42 533.312C224.591 532.915 224.818 532.605 225.102 532.383C225.389 532.159 225.701 532.003 226.039 531.915C226.38 531.824 226.716 531.778 227.045 531.778C227.255 531.778 227.497 531.804 227.769 531.855C228.045 531.903 228.311 532.004 228.566 532.158C228.825 532.311 229.039 532.543 229.21 532.852C229.38 533.162 229.465 533.577 229.465 534.097V538.409H228.46V537.523H228.409C228.34 537.665 228.227 537.817 228.068 537.979C227.909 538.141 227.697 538.278 227.433 538.392C227.168 538.506 226.846 538.562 226.466 538.562ZM226.619 537.659C227.017 537.659 227.352 537.581 227.624 537.425C227.9 537.268 228.107 537.067 228.247 536.82C228.389 536.572 228.46 536.312 228.46 536.04V535.119C228.417 535.17 228.323 535.217 228.178 535.26C228.036 535.3 227.872 535.335 227.684 535.366C227.499 535.395 227.319 535.42 227.143 535.443C226.97 535.463 226.829 535.48 226.721 535.494C226.46 535.528 226.216 535.584 225.988 535.66C225.764 535.734 225.582 535.846 225.443 535.997C225.307 536.145 225.238 536.346 225.238 536.602C225.238 536.952 225.368 537.216 225.626 537.395C225.887 537.571 226.218 537.659 226.619 537.659ZM239.312 533.329L238.409 533.585C238.352 533.435 238.268 533.288 238.157 533.146C238.05 533.001 237.902 532.882 237.714 532.788C237.527 532.695 237.287 532.648 236.994 532.648C236.594 532.648 236.26 532.74 235.993 532.925C235.729 533.106 235.596 533.338 235.596 533.619C235.596 533.869 235.687 534.067 235.869 534.212C236.051 534.356 236.335 534.477 236.721 534.574L237.693 534.812C238.278 534.954 238.714 535.172 239.001 535.464C239.288 535.754 239.432 536.128 239.432 536.585C239.432 536.96 239.324 537.295 239.108 537.591C238.895 537.886 238.596 538.119 238.213 538.29C237.829 538.46 237.383 538.545 236.875 538.545C236.207 538.545 235.655 538.4 235.217 538.111C234.78 537.821 234.503 537.398 234.386 536.841L235.341 536.602C235.432 536.954 235.604 537.219 235.856 537.395C236.112 537.571 236.446 537.659 236.858 537.659C237.327 537.659 237.699 537.56 237.974 537.361C238.253 537.159 238.392 536.918 238.392 536.636C238.392 536.409 238.312 536.219 238.153 536.065C237.994 535.909 237.75 535.793 237.42 535.716L236.329 535.46C235.73 535.318 235.29 535.098 235.008 534.8C234.73 534.498 234.591 534.122 234.591 533.67C234.591 533.301 234.694 532.974 234.902 532.69C235.112 532.406 235.398 532.183 235.758 532.021C236.122 531.859 236.534 531.778 236.994 531.778C237.642 531.778 238.15 531.92 238.52 532.204C238.892 532.489 239.156 532.864 239.312 533.329ZM243.605 538.545C243.014 538.545 242.495 538.405 242.049 538.123C241.606 537.842 241.259 537.449 241.009 536.943C240.762 536.437 240.639 535.846 240.639 535.17C240.639 534.489 240.762 533.893 241.009 533.385C241.259 532.876 241.606 532.481 242.049 532.2C242.495 531.919 243.014 531.778 243.605 531.778C244.195 531.778 244.713 531.919 245.156 532.2C245.602 532.481 245.948 532.876 246.195 533.385C246.445 533.893 246.57 534.489 246.57 535.17C246.57 535.846 246.445 536.437 246.195 536.943C245.948 537.449 245.602 537.842 245.156 538.123C244.713 538.405 244.195 538.545 243.605 538.545ZM243.605 537.642C244.053 537.642 244.423 537.527 244.713 537.297C245.002 537.067 245.217 536.764 245.356 536.389C245.495 536.014 245.565 535.608 245.565 535.17C245.565 534.733 245.495 534.325 245.356 533.947C245.217 533.57 245.002 533.264 244.713 533.031C244.423 532.798 244.053 532.682 243.605 532.682C243.156 532.682 242.786 532.798 242.497 533.031C242.207 533.264 241.992 533.57 241.853 533.947C241.714 534.325 241.644 534.733 241.644 535.17C241.644 535.608 241.714 536.014 241.853 536.389C241.992 536.764 242.207 537.067 242.497 537.297C242.786 537.527 243.156 537.642 243.605 537.642ZM248.106 538.409V531.864H249.077V532.852H249.145C249.265 532.528 249.481 532.266 249.793 532.064C250.106 531.862 250.458 531.761 250.85 531.761C250.924 531.761 251.016 531.763 251.127 531.766C251.238 531.768 251.322 531.773 251.378 531.778V532.801C251.344 532.793 251.266 532.78 251.144 532.763C251.025 532.743 250.898 532.733 250.765 532.733C250.447 532.733 250.162 532.8 249.912 532.933C249.665 533.064 249.469 533.246 249.324 533.479C249.182 533.709 249.111 533.971 249.111 534.267V538.409H248.106ZM255.827 531.864V532.716H252.435V531.864H255.827ZM253.424 530.295H254.43V536.534C254.43 536.818 254.471 537.031 254.553 537.173C254.638 537.312 254.746 537.406 254.877 537.454C255.01 537.5 255.151 537.523 255.299 537.523C255.41 537.523 255.501 537.517 255.572 537.506C255.643 537.491 255.699 537.48 255.742 537.471L255.947 538.375C255.878 538.4 255.783 538.426 255.661 538.452C255.539 538.48 255.384 538.494 255.197 538.494C254.912 538.494 254.634 538.433 254.361 538.311C254.091 538.189 253.867 538.003 253.688 537.753C253.512 537.503 253.424 537.187 253.424 536.807V530.295ZM260.014 538.545C259.383 538.545 258.839 538.406 258.382 538.128C257.927 537.847 257.577 537.454 257.329 536.952C257.085 536.446 256.963 535.858 256.963 535.187C256.963 534.517 257.085 533.926 257.329 533.415C257.577 532.9 257.92 532.5 258.361 532.213C258.804 531.923 259.321 531.778 259.912 531.778C260.253 531.778 260.589 531.835 260.922 531.949C261.254 532.062 261.557 532.247 261.829 532.503C262.102 532.756 262.319 533.091 262.481 533.508C262.643 533.926 262.724 534.44 262.724 535.051V535.477H257.679V534.608H261.702C261.702 534.239 261.628 533.909 261.48 533.619C261.335 533.329 261.128 533.101 260.858 532.933C260.591 532.766 260.275 532.682 259.912 532.682C259.511 532.682 259.165 532.781 258.872 532.98C258.582 533.176 258.359 533.432 258.203 533.747C258.047 534.062 257.969 534.4 257.969 534.761V535.341C257.969 535.835 258.054 536.254 258.224 536.598C258.398 536.939 258.638 537.199 258.944 537.378C259.251 537.554 259.608 537.642 260.014 537.642C260.278 537.642 260.517 537.605 260.73 537.531C260.946 537.454 261.132 537.341 261.288 537.19C261.444 537.037 261.565 536.846 261.65 536.619L262.622 536.892C262.52 537.221 262.348 537.511 262.106 537.761C261.865 538.008 261.567 538.202 261.211 538.341C260.856 538.477 260.457 538.545 260.014 538.545Z" fill="white"/>
<path fill-rule="evenodd" clip-rule="evenodd" d="M238.777 436.036C227.257 433.809 218.457 431.689 216.524 431.209L216.511 431.062L216.497 431.022C218.524 430.596 228.471 428.702 239.257 429.689C258.724 431.476 256.471 405.236 240.964 409.796C246.604 395.009 224.791 389.076 221.044 408.449C218.804 420.049 216.657 428.876 216.204 430.729C216.164 430.716 216.124 430.716 216.084 430.716L216.031 430.729C215.617 428.716 213.711 418.769 214.697 407.969C216.484 388.502 190.244 390.756 194.804 406.262C180.004 400.622 174.084 422.422 193.457 426.169C205.044 428.422 213.871 430.556 215.737 431.009C215.724 431.049 215.711 431.103 215.724 431.143V431.196C213.671 431.623 203.737 433.516 192.964 432.529C173.511 430.743 175.751 456.982 191.257 452.422C185.617 467.209 207.431 473.129 211.177 453.756C213.164 443.556 215.057 435.489 215.791 432.436C216.097 438.449 215.484 444.476 214.244 450.342C212.924 456.649 210.937 462.809 208.857 468.942C206.684 475.036 204.684 481.423 203.857 488.009C202.964 494.596 203.111 501.382 204.404 507.969V507.982L204.417 508.049C204.657 509.076 205.684 509.716 206.711 509.476C207.751 509.223 208.391 508.196 208.151 507.169C206.711 501.036 206.311 494.676 206.924 488.369C207.217 485.209 207.751 482.062 208.484 478.956C209.204 475.836 210.151 472.782 211.084 469.649C212.937 463.409 214.697 457.103 215.777 450.636C216.657 445.463 217.057 440.196 216.817 434.956C217.457 439.222 218.231 446.516 217.524 454.249C215.737 473.702 241.991 471.463 237.431 455.956C252.217 461.596 258.151 439.783 238.777 436.036Z" fill="white"/>
</svg>
